<mxfile host="app.diagrams.net" agent="Mozilla/5.0 (X11; Linux x86_64) AppleWebKit/537.36 (KHTML, like Gecko) Chrome/131.0.0.0 Safari/537.36" version="24.9.0">
  <diagram name="Page-1" id="aJAdJDudBvyisEWjIzyK">
    <mxGraphModel dx="1572" dy="694" grid="1" gridSize="10" guides="1" tooltips="1" connect="1" arrows="1" fold="1" page="1" pageScale="1" pageWidth="850" pageHeight="1100" math="0" shadow="0">
      <root>
        <mxCell id="0" />
        <mxCell id="1" parent="0" />
        <mxCell id="Xp4xUTQXD1p0DVJgMB-7-1" value="" style="ellipse;html=1;shape=startState;fillColor=#000000;strokeColor=#ff0000;" vertex="1" parent="1">
          <mxGeometry x="410" y="30" width="30" height="30" as="geometry" />
        </mxCell>
        <mxCell id="Xp4xUTQXD1p0DVJgMB-7-2" value="" style="edgeStyle=orthogonalEdgeStyle;html=1;verticalAlign=bottom;endArrow=open;endSize=8;strokeColor=#ff0000;rounded=0;entryX=0.5;entryY=0;entryDx=0;entryDy=0;" edge="1" source="Xp4xUTQXD1p0DVJgMB-7-1" parent="1" target="Xp4xUTQXD1p0DVJgMB-7-3">
          <mxGeometry relative="1" as="geometry">
            <mxPoint x="425" y="120" as="targetPoint" />
          </mxGeometry>
        </mxCell>
        <mxCell id="Xp4xUTQXD1p0DVJgMB-7-5" value="" style="rounded=0;orthogonalLoop=1;jettySize=auto;html=1;" edge="1" parent="1" source="Xp4xUTQXD1p0DVJgMB-7-3" target="Xp4xUTQXD1p0DVJgMB-7-4">
          <mxGeometry relative="1" as="geometry" />
        </mxCell>
        <mxCell id="Xp4xUTQXD1p0DVJgMB-7-46" value="&lt;span style=&quot;color: rgb(0, 0, 0); font-family: Helvetica; font-size: 11px; font-style: normal; font-variant-ligatures: normal; font-variant-caps: normal; font-weight: 400; letter-spacing: normal; orphans: 2; text-align: center; text-indent: 0px; text-transform: none; widows: 2; word-spacing: 0px; -webkit-text-stroke-width: 0px; white-space: nowrap; background-color: rgb(255, 255, 255); text-decoration-thickness: initial; text-decoration-style: initial; text-decoration-color: initial; display: inline !important; float: none;&quot;&gt;Google Login&lt;/span&gt;&lt;br style=&quot;forced-color-adjust: none; color: rgb(0, 0, 0); font-family: Helvetica; font-size: 11px; font-style: normal; font-variant-ligatures: normal; font-variant-caps: normal; font-weight: 400; letter-spacing: normal; orphans: 2; text-align: center; text-indent: 0px; text-transform: none; widows: 2; word-spacing: 0px; -webkit-text-stroke-width: 0px; white-space: nowrap; text-decoration-thickness: initial; text-decoration-style: initial; text-decoration-color: initial;&quot;&gt;&lt;span style=&quot;color: rgb(0, 0, 0); font-family: Helvetica; font-size: 11px; font-style: normal; font-variant-ligatures: normal; font-variant-caps: normal; font-weight: 400; letter-spacing: normal; orphans: 2; text-align: center; text-indent: 0px; text-transform: none; widows: 2; word-spacing: 0px; -webkit-text-stroke-width: 0px; white-space: nowrap; background-color: rgb(255, 255, 255); text-decoration-thickness: initial; text-decoration-style: initial; text-decoration-color: initial; display: inline !important; float: none;&quot;&gt;as Candidate&lt;/span&gt;" style="edgeLabel;html=1;align=center;verticalAlign=middle;resizable=0;points=[];" vertex="1" connectable="0" parent="Xp4xUTQXD1p0DVJgMB-7-5">
          <mxGeometry x="-0.2632" relative="1" as="geometry">
            <mxPoint x="-38" y="-17" as="offset" />
          </mxGeometry>
        </mxCell>
        <mxCell id="Xp4xUTQXD1p0DVJgMB-7-8" value="" style="rounded=0;orthogonalLoop=1;jettySize=auto;html=1;" edge="1" parent="1" source="Xp4xUTQXD1p0DVJgMB-7-3" target="Xp4xUTQXD1p0DVJgMB-7-7">
          <mxGeometry relative="1" as="geometry" />
        </mxCell>
        <mxCell id="Xp4xUTQXD1p0DVJgMB-7-55" value="Google Login&lt;br&gt;as Recruiter" style="edgeLabel;html=1;align=center;verticalAlign=middle;resizable=0;points=[];" vertex="1" connectable="0" parent="Xp4xUTQXD1p0DVJgMB-7-8">
          <mxGeometry x="-0.2254" y="1" relative="1" as="geometry">
            <mxPoint x="33" y="-16" as="offset" />
          </mxGeometry>
        </mxCell>
        <mxCell id="Xp4xUTQXD1p0DVJgMB-7-3" value="Not Authenticated" style="html=1;whiteSpace=wrap;" vertex="1" parent="1">
          <mxGeometry x="370" y="100" width="110" height="50" as="geometry" />
        </mxCell>
        <mxCell id="Xp4xUTQXD1p0DVJgMB-7-10" value="" style="rounded=0;orthogonalLoop=1;jettySize=auto;html=1;" edge="1" parent="1" source="Xp4xUTQXD1p0DVJgMB-7-4" target="Xp4xUTQXD1p0DVJgMB-7-9">
          <mxGeometry relative="1" as="geometry" />
        </mxCell>
        <mxCell id="Xp4xUTQXD1p0DVJgMB-7-47" value="Direct Login" style="edgeLabel;html=1;align=center;verticalAlign=middle;resizable=0;points=[];" vertex="1" connectable="0" parent="Xp4xUTQXD1p0DVJgMB-7-10">
          <mxGeometry x="-0.1094" y="-1" relative="1" as="geometry">
            <mxPoint x="-24" y="14" as="offset" />
          </mxGeometry>
        </mxCell>
        <mxCell id="Xp4xUTQXD1p0DVJgMB-7-14" value="" style="rounded=0;orthogonalLoop=1;jettySize=auto;html=1;" edge="1" parent="1" source="Xp4xUTQXD1p0DVJgMB-7-4" target="Xp4xUTQXD1p0DVJgMB-7-13">
          <mxGeometry relative="1" as="geometry" />
        </mxCell>
        <mxCell id="Xp4xUTQXD1p0DVJgMB-7-48" value="Init Registration" style="edgeLabel;html=1;align=center;verticalAlign=middle;resizable=0;points=[];" vertex="1" connectable="0" parent="Xp4xUTQXD1p0DVJgMB-7-14">
          <mxGeometry x="-0.2273" y="-1" relative="1" as="geometry">
            <mxPoint x="14" y="4" as="offset" />
          </mxGeometry>
        </mxCell>
        <mxCell id="Xp4xUTQXD1p0DVJgMB-7-4" value="Candidate" style="html=1;whiteSpace=wrap;" vertex="1" parent="1">
          <mxGeometry x="200" y="170" width="110" height="50" as="geometry" />
        </mxCell>
        <mxCell id="Xp4xUTQXD1p0DVJgMB-7-19" value="" style="edgeStyle=orthogonalEdgeStyle;rounded=0;orthogonalLoop=1;jettySize=auto;html=1;" edge="1" parent="1" source="Xp4xUTQXD1p0DVJgMB-7-7" target="Xp4xUTQXD1p0DVJgMB-7-18">
          <mxGeometry relative="1" as="geometry" />
        </mxCell>
        <mxCell id="Xp4xUTQXD1p0DVJgMB-7-56" value="Start Search" style="edgeLabel;html=1;align=center;verticalAlign=middle;resizable=0;points=[];" vertex="1" connectable="0" parent="Xp4xUTQXD1p0DVJgMB-7-19">
          <mxGeometry x="-0.2028" relative="1" as="geometry">
            <mxPoint as="offset" />
          </mxGeometry>
        </mxCell>
        <mxCell id="Xp4xUTQXD1p0DVJgMB-7-7" value="Recruiter" style="html=1;whiteSpace=wrap;" vertex="1" parent="1">
          <mxGeometry x="550" y="170" width="110" height="50" as="geometry" />
        </mxCell>
        <mxCell id="Xp4xUTQXD1p0DVJgMB-7-21" value="" style="rounded=0;orthogonalLoop=1;jettySize=auto;html=1;" edge="1" parent="1" source="Xp4xUTQXD1p0DVJgMB-7-9" target="Xp4xUTQXD1p0DVJgMB-7-20">
          <mxGeometry relative="1" as="geometry" />
        </mxCell>
        <mxCell id="Xp4xUTQXD1p0DVJgMB-7-51" value="Receive Request" style="edgeLabel;html=1;align=center;verticalAlign=middle;resizable=0;points=[];" vertex="1" connectable="0" parent="Xp4xUTQXD1p0DVJgMB-7-21">
          <mxGeometry x="-0.323" relative="1" as="geometry">
            <mxPoint x="9" y="3" as="offset" />
          </mxGeometry>
        </mxCell>
        <mxCell id="Xp4xUTQXD1p0DVJgMB-7-9" value="Profile Complete" style="html=1;whiteSpace=wrap;" vertex="1" parent="1">
          <mxGeometry x="90" y="370" width="110" height="50" as="geometry" />
        </mxCell>
        <mxCell id="Xp4xUTQXD1p0DVJgMB-7-16" value="" style="rounded=0;orthogonalLoop=1;jettySize=auto;html=1;" edge="1" parent="1" source="Xp4xUTQXD1p0DVJgMB-7-13" target="Xp4xUTQXD1p0DVJgMB-7-15">
          <mxGeometry relative="1" as="geometry" />
        </mxCell>
        <mxCell id="Xp4xUTQXD1p0DVJgMB-7-49" value="Start Profile &lt;br&gt;Creation" style="edgeLabel;html=1;align=center;verticalAlign=middle;resizable=0;points=[];" vertex="1" connectable="0" parent="Xp4xUTQXD1p0DVJgMB-7-16">
          <mxGeometry x="-0.115" relative="1" as="geometry">
            <mxPoint as="offset" />
          </mxGeometry>
        </mxCell>
        <mxCell id="Xp4xUTQXD1p0DVJgMB-7-13" value="Profile Incomplete" style="html=1;whiteSpace=wrap;" vertex="1" parent="1">
          <mxGeometry x="270" y="260" width="110" height="50" as="geometry" />
        </mxCell>
        <mxCell id="Xp4xUTQXD1p0DVJgMB-7-17" style="edgeStyle=orthogonalEdgeStyle;rounded=0;orthogonalLoop=1;jettySize=auto;html=1;entryX=1;entryY=0.5;entryDx=0;entryDy=0;" edge="1" parent="1" source="Xp4xUTQXD1p0DVJgMB-7-15" target="Xp4xUTQXD1p0DVJgMB-7-9">
          <mxGeometry relative="1" as="geometry" />
        </mxCell>
        <mxCell id="Xp4xUTQXD1p0DVJgMB-7-50" value="Resume&lt;br&gt;Submitted" style="edgeLabel;html=1;align=center;verticalAlign=middle;resizable=0;points=[];" vertex="1" connectable="0" parent="Xp4xUTQXD1p0DVJgMB-7-17">
          <mxGeometry x="-0.1333" relative="1" as="geometry">
            <mxPoint x="-5" as="offset" />
          </mxGeometry>
        </mxCell>
        <mxCell id="Xp4xUTQXD1p0DVJgMB-7-15" value="Upload Resume" style="html=1;whiteSpace=wrap;" vertex="1" parent="1">
          <mxGeometry x="350" y="370" width="110" height="50" as="geometry" />
        </mxCell>
        <mxCell id="Xp4xUTQXD1p0DVJgMB-7-25" value="" style="edgeStyle=orthogonalEdgeStyle;rounded=0;orthogonalLoop=1;jettySize=auto;html=1;" edge="1" parent="1" source="Xp4xUTQXD1p0DVJgMB-7-18" target="Xp4xUTQXD1p0DVJgMB-7-24">
          <mxGeometry relative="1" as="geometry" />
        </mxCell>
        <mxCell id="Xp4xUTQXD1p0DVJgMB-7-58" value="Process Search" style="edgeLabel;html=1;align=center;verticalAlign=middle;resizable=0;points=[];" vertex="1" connectable="0" parent="Xp4xUTQXD1p0DVJgMB-7-25">
          <mxGeometry x="-0.1472" relative="1" as="geometry">
            <mxPoint as="offset" />
          </mxGeometry>
        </mxCell>
        <mxCell id="Xp4xUTQXD1p0DVJgMB-7-18" value="Query to find&amp;nbsp;&lt;br&gt;Candidates" style="html=1;whiteSpace=wrap;" vertex="1" parent="1">
          <mxGeometry x="550" y="260" width="110" height="50" as="geometry" />
        </mxCell>
        <mxCell id="Xp4xUTQXD1p0DVJgMB-7-30" value="" style="rounded=0;orthogonalLoop=1;jettySize=auto;html=1;" edge="1" parent="1" source="Xp4xUTQXD1p0DVJgMB-7-20" target="Xp4xUTQXD1p0DVJgMB-7-29">
          <mxGeometry relative="1" as="geometry" />
        </mxCell>
        <mxCell id="Xp4xUTQXD1p0DVJgMB-7-52" value="Start Test" style="edgeLabel;html=1;align=center;verticalAlign=middle;resizable=0;points=[];" vertex="1" connectable="0" parent="Xp4xUTQXD1p0DVJgMB-7-30">
          <mxGeometry x="-0.1344" relative="1" as="geometry">
            <mxPoint as="offset" />
          </mxGeometry>
        </mxCell>
        <mxCell id="Xp4xUTQXD1p0DVJgMB-7-40" style="edgeStyle=orthogonalEdgeStyle;rounded=0;orthogonalLoop=1;jettySize=auto;html=1;entryX=0;entryY=0.5;entryDx=0;entryDy=0;" edge="1" parent="1" source="Xp4xUTQXD1p0DVJgMB-7-20" target="Xp4xUTQXD1p0DVJgMB-7-34">
          <mxGeometry relative="1" as="geometry">
            <Array as="points">
              <mxPoint x="250" y="815" />
            </Array>
          </mxGeometry>
        </mxCell>
        <mxCell id="Xp4xUTQXD1p0DVJgMB-7-62" value="No Test&lt;br&gt;Received" style="edgeLabel;html=1;align=center;verticalAlign=middle;resizable=0;points=[];" vertex="1" connectable="0" parent="Xp4xUTQXD1p0DVJgMB-7-40">
          <mxGeometry x="-0.9195" relative="1" as="geometry">
            <mxPoint y="180" as="offset" />
          </mxGeometry>
        </mxCell>
        <mxCell id="Xp4xUTQXD1p0DVJgMB-7-20" value="Questionnaire&lt;br&gt;Received" style="html=1;whiteSpace=wrap;" vertex="1" parent="1">
          <mxGeometry x="200" y="470" width="110" height="50" as="geometry" />
        </mxCell>
        <mxCell id="Xp4xUTQXD1p0DVJgMB-7-27" value="" style="edgeStyle=orthogonalEdgeStyle;rounded=0;orthogonalLoop=1;jettySize=auto;html=1;" edge="1" parent="1" source="Xp4xUTQXD1p0DVJgMB-7-24" target="Xp4xUTQXD1p0DVJgMB-7-26">
          <mxGeometry relative="1" as="geometry">
            <Array as="points">
              <mxPoint x="495" y="375" />
            </Array>
          </mxGeometry>
        </mxCell>
        <mxCell id="Xp4xUTQXD1p0DVJgMB-7-59" value="Optional&lt;br&gt;Questionnaire" style="edgeLabel;html=1;align=center;verticalAlign=middle;resizable=0;points=[];" vertex="1" connectable="0" parent="Xp4xUTQXD1p0DVJgMB-7-27">
          <mxGeometry x="0.2904" relative="1" as="geometry">
            <mxPoint y="13" as="offset" />
          </mxGeometry>
        </mxCell>
        <mxCell id="Xp4xUTQXD1p0DVJgMB-7-24" value="Get Eligible Candidates" style="html=1;whiteSpace=wrap;" vertex="1" parent="1">
          <mxGeometry x="550" y="350" width="110" height="50" as="geometry" />
        </mxCell>
        <mxCell id="Xp4xUTQXD1p0DVJgMB-7-28" style="rounded=0;orthogonalLoop=1;jettySize=auto;html=1;" edge="1" parent="1" source="Xp4xUTQXD1p0DVJgMB-7-26" target="Xp4xUTQXD1p0DVJgMB-7-20">
          <mxGeometry relative="1" as="geometry" />
        </mxCell>
        <mxCell id="Xp4xUTQXD1p0DVJgMB-7-45" style="edgeStyle=orthogonalEdgeStyle;rounded=0;orthogonalLoop=1;jettySize=auto;html=1;entryX=0.5;entryY=0;entryDx=0;entryDy=0;" edge="1" parent="1" source="Xp4xUTQXD1p0DVJgMB-7-26" target="Xp4xUTQXD1p0DVJgMB-7-38">
          <mxGeometry relative="1" as="geometry" />
        </mxCell>
        <mxCell id="Xp4xUTQXD1p0DVJgMB-7-60" value="Direct&lt;br&gt;Selection" style="edgeLabel;html=1;align=center;verticalAlign=middle;resizable=0;points=[];" vertex="1" connectable="0" parent="Xp4xUTQXD1p0DVJgMB-7-45">
          <mxGeometry x="0.0948" relative="1" as="geometry">
            <mxPoint as="offset" />
          </mxGeometry>
        </mxCell>
        <mxCell id="Xp4xUTQXD1p0DVJgMB-7-26" value="Send &lt;br&gt;Questionnaire" style="html=1;whiteSpace=wrap;" vertex="1" parent="1">
          <mxGeometry x="440" y="470" width="110" height="50" as="geometry" />
        </mxCell>
        <mxCell id="Xp4xUTQXD1p0DVJgMB-7-33" style="rounded=0;orthogonalLoop=1;jettySize=auto;html=1;entryX=0;entryY=0.5;entryDx=0;entryDy=0;" edge="1" parent="1" source="Xp4xUTQXD1p0DVJgMB-7-29" target="Xp4xUTQXD1p0DVJgMB-7-31">
          <mxGeometry relative="1" as="geometry" />
        </mxCell>
        <mxCell id="Xp4xUTQXD1p0DVJgMB-7-53" value="Submit Test" style="edgeLabel;html=1;align=center;verticalAlign=middle;resizable=0;points=[];" vertex="1" connectable="0" parent="Xp4xUTQXD1p0DVJgMB-7-33">
          <mxGeometry x="-0.0553" relative="1" as="geometry">
            <mxPoint as="offset" />
          </mxGeometry>
        </mxCell>
        <mxCell id="Xp4xUTQXD1p0DVJgMB-7-42" style="edgeStyle=orthogonalEdgeStyle;rounded=0;orthogonalLoop=1;jettySize=auto;html=1;entryX=0;entryY=0.5;entryDx=0;entryDy=0;exitX=0.545;exitY=1;exitDx=0;exitDy=0;exitPerimeter=0;" edge="1" parent="1" source="Xp4xUTQXD1p0DVJgMB-7-29" target="Xp4xUTQXD1p0DVJgMB-7-34">
          <mxGeometry relative="1" as="geometry">
            <Array as="points">
              <mxPoint x="360" y="815" />
            </Array>
          </mxGeometry>
        </mxCell>
        <mxCell id="Xp4xUTQXD1p0DVJgMB-7-63" value="Disqualified" style="edgeLabel;html=1;align=center;verticalAlign=middle;resizable=0;points=[];" vertex="1" connectable="0" parent="Xp4xUTQXD1p0DVJgMB-7-42">
          <mxGeometry x="-0.2598" relative="1" as="geometry">
            <mxPoint as="offset" />
          </mxGeometry>
        </mxCell>
        <mxCell id="Xp4xUTQXD1p0DVJgMB-7-29" value="Attempt Test" style="html=1;whiteSpace=wrap;" vertex="1" parent="1">
          <mxGeometry x="300" y="560" width="110" height="50" as="geometry" />
        </mxCell>
        <mxCell id="Xp4xUTQXD1p0DVJgMB-7-39" value="" style="rounded=0;orthogonalLoop=1;jettySize=auto;html=1;" edge="1" parent="1" source="Xp4xUTQXD1p0DVJgMB-7-31" target="Xp4xUTQXD1p0DVJgMB-7-38">
          <mxGeometry relative="1" as="geometry" />
        </mxCell>
        <mxCell id="Xp4xUTQXD1p0DVJgMB-7-61" value="Review Score" style="edgeLabel;html=1;align=center;verticalAlign=middle;resizable=0;points=[];" vertex="1" connectable="0" parent="Xp4xUTQXD1p0DVJgMB-7-39">
          <mxGeometry x="-0.0338" y="1" relative="1" as="geometry">
            <mxPoint as="offset" />
          </mxGeometry>
        </mxCell>
        <mxCell id="Xp4xUTQXD1p0DVJgMB-7-31" value="Receive Score" style="html=1;whiteSpace=wrap;" vertex="1" parent="1">
          <mxGeometry x="440" y="640" width="110" height="50" as="geometry" />
        </mxCell>
        <mxCell id="Xp4xUTQXD1p0DVJgMB-7-34" value="" style="ellipse;html=1;shape=endState;fillColor=#000000;strokeColor=#ff0000;" vertex="1" parent="1">
          <mxGeometry x="450" y="800" width="30" height="30" as="geometry" />
        </mxCell>
        <mxCell id="Xp4xUTQXD1p0DVJgMB-7-44" style="edgeStyle=orthogonalEdgeStyle;rounded=0;orthogonalLoop=1;jettySize=auto;html=1;entryX=1;entryY=0.5;entryDx=0;entryDy=0;" edge="1" parent="1" source="Xp4xUTQXD1p0DVJgMB-7-38" target="Xp4xUTQXD1p0DVJgMB-7-34">
          <mxGeometry relative="1" as="geometry">
            <Array as="points">
              <mxPoint x="615" y="815" />
            </Array>
          </mxGeometry>
        </mxCell>
        <mxCell id="Xp4xUTQXD1p0DVJgMB-7-38" value="Message&lt;br&gt;Candidate" style="html=1;whiteSpace=wrap;" vertex="1" parent="1">
          <mxGeometry x="560" y="730" width="110" height="50" as="geometry" />
        </mxCell>
      </root>
    </mxGraphModel>
  </diagram>
</mxfile>
